PathFileType	4	(X/Y/Z)	C:/Users/beibeiliu/ov580/test_trc/User3\sequence.20_training_dense_right.trc
DataRate	CameraRate	NumFrames	NumMarkers	Units	OrigDataRate	OrigDataStartFrame	OrigNumFrames
120	120	16	19	mm	120	60	89
Frame#	Time	ThumbCMC			ThumbMCP			ThumbIP			ThumbTip			IndexMCP			IndexPIP			IndexTip			MiddleMCP			MiddlePIP			MiddleTip			RingMCP			RingPIP			RingTip			PinkyMCP			PinkyPIP			PinkyTip			BackHand1			BackHand2			BackHand3	
		X0	Y0	Z0	X1	Y1	Z1	X2	Y2	Z2	X3	Y3	Z3	X4	Y4	Z4	X5	Y5	Z5	X6	Y6	Z6	X7	Y7	Z7	X8	Y8	Z8	X9	Y9	Z9	X10	Y10	Z10	X11	Y11	Z11	X12	Y12	Z12	X13	Y13	Z13	X14	Y14	Z14	X15	Y15	Z15	X16	Y16	Z16	X17	Y17	Z17	X18	Y18	Z18	
59	0.491667	203.361	55.78	48.317	184.973	71.0025	18.1494	162.066	50.5961	4.81112	148.003	32.1748	10.9029	205.594	43.8612	-24.8312	202.971	47.3856	-50.422	197.68	49.995	-76.3286	186.423	19.3676	-30.7723	179.912	20.8587	-57.4213	170.675	25.8962	-84.5073	171.703	5.81567	-17.6722	163.272	2.73174	-40.9092	152.509	2.78201	-64.0285	156.434	-4.03274	4.54563	146.321	-9.741	-13.7386	138.398	-13.4477	-33.9891	189.899	2.09899	26.8517	198.315	-3.76159	59.4737	216.081	21.3308	39.4311	
60	0.5	220.663	43.6694	53.9175	204.585	59.686	25.6028	176.526	55.7818	9.1407	153.205	39.8617	15.0525	211.314	30.4833	-24.155	213.327	40.0666	-49.9841	211.678	46.0138	-74.0619	189.335	16.8512	-23.7203	184.084	23.9024	-51.0428	169.651	31.6035	-83.6409	166.447	8.66943	-15.9891	158.128	11.1569	-35.7564	146.653	15.2187	-60.7332	149.411	4.47615	9.71769	140.991	4.84429	-13.0157	126.272	-0.0445094	-26.6419	184.122	-5.30022	31.7169	190.581	-12.868	60.8299	216.443	5.26131	38.5187	
61	0.508333	225.873	29.1988	55.3424	217.989	54.4373	29.8483	187.433	55.5305	12.2233	165.361	43.0509	20.5777	218.945	21.3888	-15.1723	218.69	29.336	-44.0345	223.124	37.6626	-64.927	188.689	13.367	-18.8685	189.458	22.2007	-49.2678	183.544	34.8547	-77.4048	172.102	11.7882	-11.341	164.452	14.9193	-31.5802	153.205	22.4461	-56.2672	152.841	10.0197	7.94645	141.059	11.8775	-5.93614	128.945	11.5894	-30.8355	180.197	-6.35586	34.2588	183.903	-16.7527	62.9926	217.418	-4.86455	43.7557	
62	0.516667	229.562	17.5132	61.5423	224.151	42.1272	35.1119	194.556	47.5997	14.8293	170.374	41.3202	20.539	220.62	11.0318	-10.9501	224.972	18.369	-35.4732	232.937	26.4239	-61.4608	193.743	6.92396	-21.3932	196.486	16.2928	-44.9321	191.225	31.18	-75.7844	172.75	8.44277	-6.95779	171.262	14.0545	-34.4851	162.11	24.2788	-59.7802	152.866	9.6895	12.6104	145.718	13.0677	-9.32411	137.037	16.6034	-31.4199	180.12	-11.577	39.727	177.676	-22.3469	68.138	212.295	-13.1537	47.6549	
63	0.525	230.065	11.9287	63.4454	226.818	34.3823	36.742	201.844	43.1537	16.1329	171.906	37.1985	20.8278	222.973	3.72857	-8.95899	235.587	9.71274	-34.8993	234.788	18.5002	-59.6767	196.801	1.8009	-16.3833	199.794	9.53158	-40.7435	197.282	24.3829	-75.2332	175.345	4.56253	-5.38194	172.229	10.3878	-30.6122	168.352	20.196	-54.9365	155.799	7.00789	12.5024	152.102	10.1451	-6.95586	141.058	12.6138	-29.6468	179.123	-16.4859	37.9402	177.228	-24.528	70.5985	213.678	-18.3503	51.1487	
64	0.533333	230.102	10.008	70.6555	230.581	31.8526	35.4228	208.67	41.9552	16.6459	178.271	34.5565	19.9098	231.038	0.88497	-5.25524	240.041	8.23656	-34.6743	241.102	15.6172	-57.8921	205.218	-0.0768161	-15.8801	203.259	8.47619	-41.8041	207.764	21.1707	-71.5428	180.579	2.8715	-6.38137	175.955	8.47214	-34.7131	176.06	17.0726	-54.7728	161.519	5.48461	10.2405	154.113	8.02894	-10.8374	144.035	10.5246	-30.6589	180.03	-16.2457	38.1853	177.613	-25.5092	69.5185	212.914	-19.99	54.6818	
65	0.541667	235.565	10.8779	69.646	235.443	30.0476	39.5507	215.787	39.2168	16.3537	188.069	36.4833	18.4634	235.824	2.62284	-4.58079	241.605	9.82073	-32.9387	248.085	15.2911	-53.6134	207.44	1.03228	-18.8109	211.277	9.73878	-40.7993	217.125	22.3588	-69.1172	189.572	4.37108	-9.37189	187.786	9.59485	-32.7288	186.201	19.0221	-58.5486	167.755	6.66203	7.34223	158.937	10.0049	-14.1895	154.477	12.6353	-32.6315	185.409	-15.5037	40.7137	183.691	-22.9869	70.4906	216.084	-20.6673	51.8631	
66	0.55	242.048	10.6461	69.756	243.819	30.1774	40.9215	222.181	38.6206	14.2354	195.873	35.9297	18.4928	242.328	4.62247	-7.81298	253.529	8.98055	-28.3548	260.453	15.6613	-55.9308	216.614	2.43382	-15.1162	220.458	10.9606	-41.5958	224.077	24.6911	-72.8837	194.724	5.23486	-12.1391	193.839	10.9865	-36.1705	194.478	19.5668	-57.9341	174.263	7.85016	7.38043	169.05	10.9912	-10.4736	159.012	14.8621	-35.1275	189.544	-14.405	35.7727	186.871	-20.9824	66.3095	222.082	-18.6983	54.7218	
67	0.558333	249.274	9.75418	70.4583	251.696	28.9606	40.2259	229.019	36.4826	17.117	204.629	38.8158	16.6322	249.692	4.37908	-7.41194	262.292	9.87696	-29.9183	266.943	15.2821	-54.8057	228.03	4.71973	-19.1455	228.728	12.0714	-41.75	233.438	24.104	-70.5874	201.44	6.56421	-7.93269	203.051	11.9281	-32.675	202.523	21.6264	-58.454	179.33	11.0844	7.19683	177.587	13.4047	-17.37	168.71	16.9472	-35.6672	197.524	-12.6842	38.1873	189.894	-21.4317	67.0995	230.531	-18.6143	51.6397	
68	0.566667	253.598	10.5186	70.428	258.564	28.7593	42.1406	239.614	41.3388	14.3105	211.111	40.1196	14.8126	255.964	4.05835	-5.11719	265.915	8.02351	-28.901	278.097	14.2445	-51.9625	231.527	3.97037	-21.0092	236.27	12.535	-42.4368	242.739	24.3238	-72.1413	207.633	7.50694	-11.1853	211.96	13.0011	-34.1211	213.09	21.7751	-62.7241	188.147	12.0324	4.15251	185.706	15.1733	-13.7587	178.712	17.916	-40.4389	205.378	-12.149	37.306	196.786	-19.2479	62.425	231.366	-17.7962	50.5401	
69	0.575	252.513	14.1019	64.8765	260.107	32.7534	39.5745	238.495	41.2154	11.999	214.257	41.34	13.4721	264.923	6.49457	-9.32534	274.098	11.1559	-30.9578	282.938	17.5159	-53.4694	238.357	4.34336	-20.0852	244.429	12.5081	-44.5896	245.036	25.7829	-75.1436	213.473	7.08328	-11.8787	217.523	12.5068	-35.5287	213.1	20.9928	-64.32	194.327	10.5056	-0.480824	184.718	13.028	-16.6119	179.756	15.3134	-39.3307	207.53	-11.145	32.02	205.053	-18.9938	64.0235	239.24	-14.2184	53.9494	
70	0.583333	248.798	29.8943	64.257	251.323	47.628	33.81	231.588	51.8492	6.2172	204.419	41.9151	7.71298	261.337	20.0872	-14.6373	272.526	26.9615	-34.9813	281.362	36.3684	-60.6587	235.994	10.6007	-22.5175	244.851	19.3289	-45.8118	242.867	30.5282	-76.5407	217.227	10.0658	-15.1248	218.422	12.5671	-39.2067	217.912	19.3738	-66.5921	195.205	7.30035	-4.09299	187.601	7.11006	-25.0092	185.224	6.18856	-42.9621	211.799	-5.93405	29.1198	209.276	-13.0294	57.5781	242.494	-4.46963	48.7082	
71	0.591667	235.625	53.2732	58.425	233.236	71.0479	27.5402	212.291	57.6166	2.97245	190.981	38.7748	2.89463	254.264	44.9672	-15.1829	258.338	52.7673	-41.2428	264.762	62.7626	-61.0191	238.393	28.0283	-27.5341	240.04	34.0829	-50.0948	238.022	45.5109	-84.4883	218.32	15.9599	-20.1065	215.808	15.6137	-43.0753	216.862	21.0254	-73.5377	196.245	6.09112	-4.42218	195.981	2.44741	-24.9182	191.273	-1.25556	-45.8619	218.746	0.540239	30.3225	216.958	-3.22217	61.4651	242.094	20.3896	50.9023	
72	0.6	209.808	69.6303	57.5311	202.493	80.1547	20.8525	193.174	60.2423	-3.22173	184.429	34.7223	-1.21526	235.737	66.6709	-15.4791	239.052	77.729	-44.5435	238.481	85.8837	-67.9449	231.091	44.54	-28.3128	230.42	48.1252	-55.1423	227.008	57.7089	-84.0968	220.497	26.4753	-19.8686	222.092	28.596	-47.225	218.479	25.873	-74.7515	205.784	9.39409	-6.09336	207.609	3.85566	-31.7383	207.232	-5.42194	-53.4499	224.521	15.785	29.1919	222.566	10.1339	54.805	235.255	46.8507	45.0729	
73	0.608333	183.543	72.3416	49.4001	170.375	79.7253	15.6386	173.345	56.4825	-7.5868	178.722	30.9641	-8.2954	211.828	82.3859	-19.1682	210.05	94.9126	-43.9649	208.718	99.4057	-67.5977	218.669	59.3858	-29.4362	216.797	61.6659	-53.9887	211.932	66.6816	-86.4438	216.701	38.3679	-21.0665	220.491	35.751	-48.9902	218.613	36.1234	-75.8379	211.047	13.8763	-8.82973	216.383	7.43963	-31.6343	222.25	3.63315	-55.43	220.378	32.8815	26.0425	219.931	26.3639	57.1998	215.368	62.1655	46.5332	
74	0.616667	156.246	59.4837	46.1362	146.19	59.4015	11.7786	154.967	43.0325	-11.7328	172.068	21.9137	-11.9906	179.588	81.2199	-22.9412	174.886	90.5176	-50.0638	172.744	90.8067	-73.4272	197.61	64.5128	-32.4072	197.653	64.879	-59.8583	193.678	65.8616	-88.6609	207.396	44.457	-22.2155	211.665	44.4893	-53.0867	211.968	43.834	-74.7145	212.61	21.2885	-9.69135	221.288	18.986	-34.2854	225.805	17.8848	-56.4575	211.958	40.6277	23.4968	210.828	36.9199	56.577	191.92	67.1525	39.845	
